<?xml version="1.0" standalone="no"?>
<!DOCTYPE svg PUBLIC "-//W3C//DTD SVG 20010904//EN"
 "http://www.w3.org/TR/2001/REC-SVG-20010904/DTD/svg10.dtd">
<svg version="1.0" xmlns="http://www.w3.org/2000/svg"
 width="512.000000pt" height="512.000000pt" viewBox="0 0 512.000000 512.000000"
 preserveAspectRatio="xMidYMid meet">
<metadata>
Created by potrace 1.14, written by Peter Selinger 2001-2017
</metadata>
<g transform="translate(0.000000,512.000000) scale(0.100000,-0.100000)"
fill="#000000" stroke="none">
<path d="M940 5113 c-318 -49 -588 -297 -660 -605 -45 -192 -21 -388 67 -556
115 -221 338 -384 573 -420 53 -8 232 -8 275 0 194 37 372 145 491 300 305
395 178 966 -266 1197 -114 60 -204 82 -340 85 -63 1 -126 1 -140 -1z"/>
<path d="M3610 5101 c-318 -85 -508 -391 -439 -709 16 -73 65 -186 94 -218 5
-6 23 -28 40 -49 68 -87 214 -171 335 -193 69 -13 223 -6 285 13 318 95 503
449 399 762 -50 150 -174 291 -314 355 -120 55 -281 71 -400 39z"/>
<path d="M2161 3294 c-148 -31 -278 -99 -377 -198 -191 -192 -263 -432 -209
-699 14 -71 69 -202 108 -258 73 -104 190 -203 304 -255 97 -46 170 -64 284
-71 221 -13 430 73 584 239 341 369 231 960 -220 1178 -157 76 -314 97 -474
64z"/>
<path d="M3968 2105 c-2 -2 -21 -5 -43 -8 -208 -30 -430 -184 -545 -377 -80
-133 -113 -260 -112 -425 4 -531 537 -911 1046 -744 233 76 429 269 505 495
51 154 57 257 26 439 -14 82 -74 214 -134 295 -153 207 -406 333 -658 329 -45
-1 -84 -3 -85 -4z"/>
<path d="M723 1184 c-233 -51 -424 -256 -459 -491 -15 -97 -5 -201 26 -290 57
-163 179 -290 340 -356 91 -38 135 -45 247 -42 322 8 572 267 575 595 4 379
-356 667 -729 584z"/>
</g>
</svg>
